<svg width="216" height="216" viewBox="0 0 216 216" fill="none" xmlns="http://www.w3.org/2000/svg">
<path d="M28.8006 36C24.8118 36 21.6006 39.2112 21.6006 43.2C21.6006 47.1888 24.8118 50.4 28.8006 50.4H136.801C140.789 50.4 144.001 47.1888 144.001 43.2C144.001 39.2112 140.789 36 136.801 36H28.8006ZM28.8006 86.4C24.8118 86.4 21.6006 89.6112 21.6006 93.6C21.6006 97.5888 24.8118 100.8 28.8006 100.8H158.401C162.389 100.8 165.601 97.5888 165.601 93.6C165.601 89.6112 162.389 86.4 158.401 86.4H28.8006ZM144.001 122.4C144.121 144.648 144.003 177.801 144.001 194.4L190.688 162.633C193.509 159.812 193.509 155.272 190.688 152.452L144.001 122.4ZM28.8006 136.8C24.8118 136.8 21.6006 140.011 21.6006 144C21.6006 147.989 24.8118 151.2 28.8006 151.2H100.801C104.789 151.2 108.001 147.989 108.001 144C108.001 140.011 104.789 136.8 100.801 136.8H28.8006Z" fill="#800080"/>
</svg>
